<?xml version="1.0" encoding="utf-8"?>
<?xml-stylesheet href="../../../css/SVG.aspx" type="text/css"?>
<!DOCTYPE svg PUBLIC "-//W3C//DTD SVG 1.1//EN" "http://www.w3.org/Graphics/SVG/1.1/DTD/svg11.dtd">
<svg version="1.1" id="Capa_1" xmlns="http://www.w3.org/2000/svg" xmlns:xlink="http://www.w3.org/1999/xlink" x="0px" y="0px"
	 width="90px" height="90px" viewBox="0 0 90 90" class="SVG" enable-background="new 0 0 90 90" xml:space="preserve">
<g>
	<path class="PATH" fill="#B2B4B3" d="M20.714,57.143c0-6.069,0-30.354,0-30.354s0.015-1.367,0.725-3.037c-6.31,0-12.868,0-12.868,0
		s-6.07,0-6.07,6.07v21.25c0,6.071,6.07,6.071,6.07,6.071V87.5h18.215V63.215C26.787,63.215,20.714,63.215,20.714,57.143z"/>
	<path class="PATH" fill="#B2B4B3" d="M20.714,20.715c1.579,0,3.039-0.439,4.331-1.143c0.18-0.109,0.379-0.205,0.572-0.313
		c2.521-1.618,4.203-4.432,4.203-7.653c0-5.029-4.075-9.105-9.106-9.105s-9.107,4.076-9.107,9.105
		C11.606,16.639,15.685,20.715,20.714,20.715z"/>
	<path class="PATH" fill="#B2B4B3" d="M81.43,23.75H68.563c0.708,1.67,0.725,3.037,0.725,3.037s0,24.285,0,30.354
		c0,6.072-6.072,6.072-6.072,6.072V87.5H81.43V57.143c0,0,6.07,0,6.07-6.069c0-6.07,0-21.25,0-21.25S87.5,23.75,81.43,23.75z"/>
	<path class="PATH" fill="#B2B4B3" d="M64.367,19.254c0.199,0.105,0.406,0.207,0.59,0.318c1.293,0.703,2.752,1.143,4.33,1.143
		c5.029,0,9.105-4.076,9.105-9.107c0-5.03-4.077-9.106-9.105-9.106c-5.031,0-9.107,4.076-9.107,9.106
		C60.18,14.822,61.854,17.633,64.367,19.254z"/>
	<circle class="PATH" fill="#B2B4B3" cx="45.001" cy="11.607" r="9.107"/>
	<path class="PATH" fill="#B2B4B3" d="M63.213,29.82c0,0,0-6.07-6.07-6.07c-1.518,0-24.286,0-24.286,0s-6.07,0-6.07,6.07v21.25
		c0,6.071,6.07,6.071,6.07,6.071V87.5h24.286V57.143c0,0,6.07,0,6.07-6.069C63.213,45.003,63.213,29.82,63.213,29.82z"/>
</g>
</svg>
