<?xml version="1.0" encoding="utf-8"?>
<?xml-stylesheet href="../../../css/SVG.aspx" type="text/css"?>
<!DOCTYPE svg PUBLIC "-//W3C//DTD SVG 1.1//EN" "http://www.w3.org/Graphics/SVG/1.1/DTD/svg11.dtd">
<svg version="1.1" id="Layer_1" xmlns="http://www.w3.org/2000/svg" xmlns:xlink="http://www.w3.org/1999/xlink" x="0px" y="0px"
	 width="90px" height="90px" viewBox="0 0 90 90" class="SVG" enable-background="new 0 0 90 90" xml:space="preserve">
<path class="PATH" fill="#B2B4B3" d="M45.024,76.875c-24.771,0-38.983-3.541-38.983-3.541c0-21.13,17.708-14.394,17.708-49.503
	c0-9.272,5.92-12.774,14.187-13.845c-0.008-0.135-0.021-0.269-0.021-0.403C37.916,5.672,41.087,2.5,44.999,2.5
	s7.085,3.172,7.085,7.083c0,0.13-0.014,0.257-0.02,0.386c8.299,1.049,14.186,4.536,14.186,13.862
	c0,35.313,17.709,28.5,17.709,49.503C83.958,73.334,69.793,76.875,45.024,76.875z M34.962,80.207
	c1.402,4.227,5.34,7.293,10.036,7.293c4.695,0,8.635-3.066,10.038-7.288c-3.119,0.123-6.442,0.204-10.012,0.204
	C41.436,80.416,38.096,80.336,34.962,80.207z"/>
</svg>
