<?xml version="1.0" encoding="utf-8"?>
<?xml-stylesheet href="../../../css/SVG.aspx" type="text/css"?>
<!DOCTYPE svg PUBLIC "-//W3C//DTD SVG 1.1//EN" "http://www.w3.org/Graphics/SVG/1.1/DTD/svg11.dtd">
<svg version="1.1" id="Capa_1" xmlns="http://www.w3.org/2000/svg" xmlns:xlink="http://www.w3.org/1999/xlink" x="0px" y="0px"
	 width="90px" height="90px" viewBox="0 0 90 90" class="SVG" enable-background="new 0 0 90 90" xml:space="preserve">
<path class="PATH" fill="#B2B4B3" d="M87.5,75.46c0,6.649-5.391,12.04-12.04,12.04H14.54C7.891,87.5,2.5,82.109,2.5,75.46V14.54
	C2.5,7.891,7.891,2.5,14.54,2.5h60.92c6.649,0,12.04,5.391,12.04,12.04V75.46z M80.5,18.124c0-5.868-2.756-8.624-8.623-8.624H18.124
	c-5.868,0-8.624,2.756-8.624,8.624v53.752c0,5.867,2.756,8.624,8.624,8.624h53.753c5.867,0,8.623-2.757,8.623-8.624V18.124z"/>
<g>
	<path class="PATH" fill="#B2B4B3" d="M81.88,83.25H7.646V7.678H81.88V83.25L81.88,83.25L81.88,83.25z M8.646,82.25H80.88V8.678H8.646V82.25
		L8.646,82.25L8.646,82.25z"/>
	<polygon class="PATH" fill="#B2B4B3" points="81.38,68.32 8.146,68.32 8.146,67.32 81.38,67.32 	"/>
	<polygon class="PATH" fill="#B2B4B3" points="81.38,53.43 8.146,53.43 8.146,52.43 81.38,52.43 	"/>
	<polygon class="PATH" fill="#B2B4B3" points="81.38,38.499 8.146,38.499 8.146,37.499 81.38,37.499 	"/>
	<polygon class="PATH" fill="#B2B4B3" points="81.38,23.607 8.146,23.607 8.146,22.607 81.38,22.607 	"/>
	<polygon class="PATH" fill="#B2B4B3" points="67.234,82.75 66.234,82.75 66.234,8.178 67.234,8.178 	"/>
	<polygon class="PATH" fill="#B2B4B3" points="52.593,82.75 51.593,82.75 51.593,8.178 52.593,8.178 	"/>
	<polygon class="PATH" fill="#B2B4B3" points="37.932,82.75 36.932,82.75 36.932,8.178 37.932,8.178 	"/>
	<polygon class="PATH" fill="#B2B4B3" points="23.29,82.75 22.29,82.75 22.29,8.178 23.29,8.178 	"/>
</g>
<path class="PATH" fill="#B2B4B3" d="M8.646,84.75c-0.616,0-1.234-0.227-1.717-0.684c-1.003-0.948-1.047-2.531-0.099-3.534l13.644-14.431
	c0.949-1.002,2.53-1.047,3.534-0.099c1.003,0.948,1.047,2.531,0.099,3.534l-13.644,14.43C9.971,84.486,9.309,84.75,8.646,84.75z"/>
<path class="PATH" fill="#B2B4B3" d="M22.288,70.32c-0.375,0-0.756-0.084-1.115-0.264c-1.235-0.617-1.737-2.119-1.12-3.354l14.642-29.321
	c0.617-1.236,2.118-1.736,3.354-1.12c1.235,0.617,1.737,2.119,1.12,3.354L24.527,68.938C24.089,69.813,23.206,70.32,22.288,70.32z"
	/>
<path class="PATH" fill="#B2B4B3" d="M52.093,55.66c-0.626,0-1.253-0.233-1.737-0.703L35.195,40.296c-0.993-0.96-1.019-2.543-0.06-3.535
	c0.96-0.993,2.542-1.019,3.535-0.06l15.161,14.662c0.991,0.96,1.019,2.542,0.06,3.535C53.398,55.405,52.746,55.66,52.093,55.66z"/>
<path class="PATH" fill="#B2B4B3" d="M52.091,55.66c-0.466,0-0.937-0.13-1.356-0.401c-1.158-0.75-1.489-2.298-0.739-3.457L78.781,7.319
	c0.75-1.16,2.298-1.492,3.457-0.74c1.158,0.75,1.49,2.298,0.74,3.457L54.191,54.52C53.713,55.258,52.91,55.66,52.091,55.66z"/>
</svg>
