<?xml version="1.0" encoding="utf-8"?>
<?xml-stylesheet href="../../../css/SVG.aspx" type="text/css"?>
<!DOCTYPE svg PUBLIC "-//W3C//DTD SVG 1.1//EN" "http://www.w3.org/Graphics/SVG/1.1/DTD/svg11.dtd">
<svg version="1.1" id="Capa_1" xmlns="http://www.w3.org/2000/svg" xmlns:xlink="http://www.w3.org/1999/xlink" x="0px" y="0px"
	 width="90px" height="90px" viewBox="0 0 90 90" class="SVG" enable-background="new 0 0 90 90" xml:space="preserve">
<path class="PATH" fill="#B2B4B3" d="M87.474,2.506L2.5,2.527l0.01,84.967l84.99-0.02L87.474,2.506z M80.277,80.359H62.986V62.969l17.286-0.018
	L80.277,80.359z M9.788,9.537H27.09V26.93H18.44H9.793L9.788,9.537z M27.528,45.161h7.708l-7.708,15.438V45.161z M27.528,44.736
	l-0.006-8.689v-8.692l17.287-0.011v2.71c-0.222-0.037-0.425-0.124-0.671-0.108c-0.848,0.071-1.601,0.592-1.984,1.358l-6.713,13.433
	H27.528z M45.242,37.697l5.28,7.039h-5.274L45.242,37.697z M62.547,45.161v3.998L61.708,51.4l-4.679-6.239H62.547z M62.547,27.344
	v17.393h-5.843L46.348,30.92c-0.294-0.383-0.677-0.634-1.115-0.784v-2.792h8.66H62.547z M44.783,37.093l0.027,0.031l0.011,7.612
	h-3.851L44.783,37.093z M50.847,45.161l9.617,12.814c0.494,0.651,1.288,0.958,2.1,0.931v3.637l-17.31,0.01V45.161H50.847z
	 M62.976,45.161h1.074l-1.074,2.852V45.161z M62.976,44.736V27.344h7.743l-6.508,17.393H62.976z M62.976,26.919l-0.008-8.721
	l-0.006-8.672l14.427-0.011l-6.516,17.403H62.976z M62.547,26.919h-8.654h-8.66V9.526h17.3l0.005,8.672L62.547,26.919z
	 M44.81,26.919L27.522,26.93V9.537L44.81,9.526V26.919z M27.09,27.354v8.688l0.006,8.694l-17.303,0.01V27.354h8.647H27.09z
	 M27.096,45.161v16.288l-0.553,1.104h-8.097l-8.642,0.012l-0.011-17.39L27.096,45.161z M26.333,62.982l-1.931,3.866L9.804,76.594
	V62.991L26.333,62.982z M27.101,70.983v0.722l0.011,8.672H13.037L27.101,70.983z M40.753,45.161h4.062v17.392H32.072L40.753,45.161z
	 M62.986,62.543v-3.689c0.794-0.18,1.471-0.721,1.767-1.493l4.572-12.209h10.947v17.382L62.986,62.543z M69.485,44.726l6.509-17.393
	h4.272l0.006,17.393H69.485z M76.162,26.919l4.104-10.982v10.969L76.162,26.919z M27.534,71.705v-1.001l0.156-0.103
	c0.36-0.237,0.644-0.574,0.84-0.957l3.331-6.662h12.96l0.013,8.685l0.006,8.688l-17.295,0.01L27.534,71.705z M45.248,62.982
	l17.311-0.014v17.391H45.264l-0.005-8.687L45.248,62.982z"/>
</svg>
