<?xml version="1.0" encoding="utf-8"?>
<?xml-stylesheet href="../../../css/SVG.aspx" type="text/css"?>
<!DOCTYPE svg PUBLIC "-//W3C//DTD SVG 1.1//EN" "http://www.w3.org/Graphics/SVG/1.1/DTD/svg11.dtd">
<svg version="1.1" id="Layer_1" xmlns="http://www.w3.org/2000/svg" xmlns:xlink="http://www.w3.org/1999/xlink" x="0px" y="0px"
	 width="90px" height="90px" viewBox="0 0 90 90" class="SVG" enable-background="new 0 0 90 90" xml:space="preserve">
<g>
	<path class="PATH" fill="#B2B4B3" d="M21.817,49.502v11.995c0,0,10.171,11.246,24.48,11.246c18,0,24.48-11.246,24.48-11.246V48.484
		L49.642,60.836c-1.508,0.882-3.369,0.943-4.934,0.157L21.817,49.502z"/>
	<path class="PATH" fill="#B2B4B3" d="M46.827,35.223c-2.642,0-5.273-0.552-6.693-1.699l-25.411,8.802l30.154,15.095
		c1.56,0.781,3.413,0.723,4.916-0.16L84.933,36.78c1.64-0.954,2.624-2.732,2.565-4.629c-0.057-1.898-1.157-3.609-2.854-4.458
		L48.256,9.479c-1.56-0.781-3.409-0.723-4.915,0.157L8.202,30.119c-1.64,0.954-2.624,2.732-2.564,4.629
		c0.061,1.896,1.156,3.606,2.854,4.458L8.415,57.801c-1.818,0.639-3.12,2.376-3.12,4.408c0,1.506,0.709,2.844,1.818,3.705
		c-0.352,2.566-1.549,4.416-2.966,5.738c-1.136,1.056-1.736,2.566-1.637,4.118c0.099,1.546,0.888,2.973,2.151,3.873l0.646,0.464
		c1.196,0.854,2.699,1.159,4.136,0.832c1.437-0.328,2.666-1.239,3.383-2.519C15.3,74,14.1,68.262,13.282,65.508
		c0.844-0.842,1.37-2.012,1.37-3.299c0-2.021-1.285-3.747-3.084-4.398l0.076-17.755l27.584-9.553
		c0.241-1.17,1.421-2.246,1.421-2.246c-0.091,0.316,0.088,4.168,5.923,4.168c3.354,0,6.064-1.07,6.064-3.255
		c0-0.4-0.094-0.834-0.265-1.282c0.943,1.163,1.506,2.474,1.506,3.548C53.88,33.979,50.721,35.223,46.827,35.223z"/>
</g>
</svg>
