<?xml-stylesheet href="../../../css/SVG.aspx" type="text/css"?>
<svg version="1.1" id="Layer_1" xmlns="http://www.w3.org/2000/svg" xmlns:xlink="http://www.w3.org/1999/xlink" x="0px" y="0px"
	fill="#FFFFFF"  class="SVG"  viewBox="0 0 50 50" enable-background="new 0 0 50 50" xml:space="preserve">
<path  class="PATH" d="M18.151,39.011c0-1.62,1.314-2.933,2.934-2.933h2.445v-0.587h-2.641c-1.621,0-2.934-1.313-2.934-2.933
	c0-1.621,1.312-2.934,2.934-2.934h2.641v-0.439h-2.641c-1.621,0-2.934-1.313-2.934-2.934s1.312-2.934,2.934-2.934h2.641v-0.439
	h-12.32c-1.619,0-2.932-1.312-2.932-2.934c0-1.619,1.312-2.932,2.932-2.932h19.816l-6.031-3.481
	c-1.404-0.812-1.883-2.606-1.074-4.007c0.812-1.402,2.605-1.883,4.009-1.073l12.324,7.116c0.908,0.523,1.469,1.492,1.469,2.539
	v20.901c0,1.62-1.314,2.933-2.936,2.933H21.084C19.465,41.943,18.151,40.631,18.151,39.011z"/>
</svg>
