<?xml-stylesheet href="../../../css/SVG.aspx" type="text/css"?>
<svg version="1.1" id="Layer_1" xmlns="http://www.w3.org/2000/svg" xmlns:xlink="http://www.w3.org/1999/xlink" x="0px" y="0px"
	fill="#FFFFFF"  class="SVG"  viewBox="0 0 50 50" enable-background="new 0 0 50 50" xml:space="preserve">
<path  class="PATH" d="M43.047,37.458l-0.145,0.173C38.128,43.359,31.77,46.514,25,46.514c-6.77,0-13.128-3.154-17.903-8.883l-0.144-0.173
	l0.034-0.224c0.922-6.014,4.064-10.844,8.847-13.605l0.34-0.196l0.271,0.284c2.259,2.369,5.297,3.674,8.554,3.674
	s6.295-1.305,8.554-3.674l0.271-0.284l0.34,0.196c4.783,2.762,7.925,7.592,8.847,13.605L43.047,37.458z M25,24.974
	c5.924,0,10.744-4.82,10.744-10.744S30.924,3.486,25,3.486S14.256,8.306,14.256,14.23S19.076,24.974,25,24.974z M35.223,36.434
	L33.79,35l1.433-1.434c0.678-0.678,0.678-1.777,0-2.457c-0.678-0.678-1.777-0.678-2.457,0l-1.433,1.434L29.9,31.109
	c-0.678-0.678-1.778-0.678-2.457,0c-0.678,0.679-0.678,1.779,0,2.457l1.434,1.433l-1.432,1.433c-0.68,0.678-0.68,1.778,0,2.457
	c0.678,0.678,1.777,0.678,2.457,0l1.433-1.433l1.433,1.433c0.68,0.678,1.778,0.678,2.457,0C35.9,38.211,35.9,37.111,35.223,36.434z"
	/>
</svg>
