<?xml-stylesheet href="../../../css/SVG.aspx" type="text/css"?>
<svg version="1.1" id="Layer_1" xmlns="http://www.w3.org/2000/svg" xmlns:xlink="http://www.w3.org/1999/xlink" x="0px" y="0px"
	fill="#FFFFFF"   class="SVG"  viewBox="0 0 50 50" enable-background="new 0 0 50 50" xml:space="preserve">
<path class="PATH"  d="M42.246,38.462l-6.833-6.833c-0.513-0.513-1.167-0.788-1.836-0.852c2.059-2.568,3.298-5.82,3.298-9.36
	c0-8.271-6.729-15-15-15c-8.271,0-15,6.729-15,15c0,8.271,6.729,15,15,15c3.121,0,6.021-0.96,8.424-2.597
	c0.018,0.744,0.305,1.482,0.872,2.051l6.833,6.833c0.585,0.586,1.354,0.879,2.121,0.879s1.536-0.293,2.121-0.879
	C43.418,41.533,43.418,39.634,42.246,38.462z M21.875,31.417c-5.514,0-10-4.485-10-10c0-5.514,4.486-10,10-10
	c5.514,0,10,4.486,10,10C31.875,26.932,27.389,31.417,21.875,31.417z"/>
</svg>
