<?xml version="1.0" encoding="utf-8"?>
<?xml-stylesheet href="../../../css/SVG.aspx" type="text/css"?>

<!DOCTYPE svg PUBLIC "-//W3C//DTD SVG 1.1//EN" "http://www.w3.org/Graphics/SVG/1.1/DTD/svg11.dtd">
<svg version="1.1" id="Layer_1" xmlns="http://www.w3.org/2000/svg" xmlns:xlink="http://www.w3.org/1999/xlink" x="0px" y="0px"
	 class="SVG" width="76px" height="76px" viewBox="0 0 26 26" enable-background="new 0 0 26 26" xml:space="preserve">
<rect x="7" y="9" fill="none" width="12" height="12"/>
<g>
	<path  class="PATH" fill="#B2B4B3"  d="M14.645,16.339c-0.073-0.024-0.537-0.233-0.247-1.114h-0.004c0.755-0.778,1.498-2.03,1.498-3.264
		c0-1.896-1.427-2.889-2.892-2.889s-2.899,0.993-2.899,2.889c0,1.238,0.755,2.495,1.515,3.271c0.296,0.777-0.233,1.065-0.344,1.106
		c-1.535,0.555-3.204,1.566-3.204,2.564c0,0.27,0,0.106,0,0.374c0,1.36,2.507,1.67,4.947,1.67c2.444,0,4.909-0.31,4.909-1.67
		c0-0.268,0-0.104,0-0.374C17.924,17.875,16.254,16.871,14.645,16.339z"/>
</g>
<rect class="PATH" fill="none" width="26" height="26"/>
<path  class="PATH" fill="#B2B4B3"  d="M23,5H3C1.344,5,0,6.344,0,8v14c0,1.656,1.344,3,3,3h20c1.656,0,3-1.344,3-3V8C26,6.344,24.656,5,23,5z
	 M24,22c0,0.552-0.448,1-1,1H3c-0.552,0-1-0.448-1-1V8c0-0.552,0.448-1,1-1h20c0.552,0,1,0.448,1,1V22z"/>
<path  class="PATH" fill="#B2B4B3"  d="M8,2H3C1.344,2,0,3.344,0,5v4c0,0,0.302-3,3-3h8V5C11,3.344,9.656,2,8,2z"/>
</svg>
