<?xml-stylesheet href="../../../css/SVG.aspx" type="text/css"?>
<svg version="1.1" id="Capa_1" xmlns="http://www.w3.org/2000/svg" xmlns:xlink="http://www.w3.org/1999/xlink" x="0px" y="0px"
	 fill="#ffffff" class="SVG_BARRA_TOP" viewBox="0 0 19.291 17.132" enable-background="new 0 0 19.291 17.132" xml:space="preserve">
<path class="PATH_BARRA_TOP" d="M7.621,9.188c-0.367,0.404-0.457,0.694-0.938,1.454c0.311,0.217,0.908,0.718,1.322,1.581
	c0.827-0.475,1.213-0.547,1.651-0.916c2.861-2.41,9.87-11.049,9.629-11.299C19.032-0.258,10.141,6.424,7.621,9.188z M5.857,11.313
	c-1.243-0.22-2.47,0.566-3.289,2.53c-0.82,1.964-2.284,2.75-2.568,2.702c1.528,0.553,6.188,1.967,7.346-3.416
	C6.854,11.838,5.857,11.313,5.857,11.313z"/>
</svg>
