<?xml version="1.0" encoding="utf-8"?>
<?xml-stylesheet href="../../../css/SVG.aspx" type="text/css"?>
<!DOCTYPE svg PUBLIC "-//W3C//DTD SVG 1.1//EN" "http://www.w3.org/Graphics/SVG/1.1/DTD/svg11.dtd">
<svg version="1.1" id="Capa_1" xmlns="http://www.w3.org/2000/svg" xmlns:xlink="http://www.w3.org/1999/xlink" x="0px" y="0px"
	 width="90px" height="90px" viewBox="0 0 90 90" class="SVG" enable-background="new 0 0 90 90" xml:space="preserve">
<g>
	<path class="PATH" fill="#B2B4B3" d="M34.498,32.312c-1.592,2.661-3.933,4.024-7.037,4.062c-3.105,0.036-4.671,1.617-4.723,4.729
		c-0.043,3.099-1.393,5.439-4.053,7.024c-2.668,1.593-3.247,3.733-1.727,6.445c1.512,2.704,1.512,5.409,0,8.121
		c-1.52,2.703-0.945,4.842,1.727,6.435c2.661,1.596,4.014,3.933,4.053,7.044c0.051,3.099,1.618,4.679,4.723,4.716
		c3.104,0.044,5.445,1.399,7.037,4.062c1.592,2.668,3.734,3.246,6.438,1.727c2.705-1.513,5.417-1.513,8.122,0
		c2.708,1.517,4.849,0.941,6.44-1.727c1.59-2.665,3.935-4.021,7.035-4.062c3.096-0.037,4.67-1.617,4.715-4.716
		c0.051-3.111,1.399-5.444,4.061-7.044c2.668-1.593,3.254-3.727,1.727-6.435c-1.519-2.712-1.519-5.417,0-8.121
		c1.527-2.712,0.946-4.857-1.727-6.445c-2.661-1.585-4.014-3.926-4.061-7.024c-0.045-3.107-1.619-4.692-4.715-4.729
		c-3.104-0.036-5.445-1.399-7.039-4.062c-1.592-2.669-3.732-3.245-6.438-1.72c-2.705,1.498-5.417,1.498-8.122,0
		C38.231,29.069,36.086,29.643,34.498,32.312z M44.99,41.644c9.385,0,16.991,7.605,16.991,16.991
		c0,9.379-7.605,16.984-16.991,16.984c-9.379,0-16.984-7.605-16.984-16.984C28.005,49.249,35.61,41.644,44.99,41.644z"/>
	<path class="PATH" fill="#B2B4B3" d="M63.379,2.987c0,0-11.777,24.573-11.777,24.411c6.104,0.151,3.675,6.319,11.204,6.483
		c3.264,0,3.7,1.521,3.7,1.521l12.748-25.059L63.379,2.987z"/>
	<path class="PATH" fill="#B2B4B3" d="M10.746,10.348L23.653,34.42c9.313-0.975,7.419-3.286,9.55-5.082c2.45-2.612,5.511-2.102,5.511-2.102
		L24.337,2.5L10.746,10.348z"/>
	<polygon class="PATH" fill="#B2B4B3" points="41.44,62.383 44.997,69.581 48.555,62.383 56.513,61.22 50.762,55.611 52.117,47.679 
		44.997,51.419 37.875,47.679 39.23,55.611 33.479,61.22 	"/>
</g>
</svg>
