<?xml version="1.0" encoding="utf-8"?>
<?xml-stylesheet href="../../../css/SVG.aspx" type="text/css"?>
<!DOCTYPE svg PUBLIC "-//W3C//DTD SVG 1.1//EN" "http://www.w3.org/Graphics/SVG/1.1/DTD/svg11.dtd">
<svg version="1.1"
	 id="Capa_1" xmlns:dc="http://purl.org/dc/elements/1.1/" xmlns:cc="http://creativecommons.org/ns#" xmlns:rdf="http://www.w3.org/1999/02/22-rdf-syntax-ns#" xmlns:svg="http://www.w3.org/2000/svg"
	 xmlns="http://www.w3.org/2000/svg" xmlns:xlink="http://www.w3.org/1999/xlink" x="0px" y="0px" width="90px" height="90px"
	 viewBox="0 0 90 90" enable-background="new 0 0 90 90" xml:space="preserve">
<g>
	<circle class="PATH" id="circle13" fill="#B2B4B3" cx="41.458" cy="34.696" r="12.775"/>
	<path class="PATH" id="path15" fill="#B2B4B3" d="M60.732,58.245c0,0,0-7.991-6.424-7.991c-1.607,0-25.7,0-25.7,0s-6.425,0-6.425,7.991
		C26.279,63.367,44.86,75.389,60.732,58.245z"/>
	<path class="PATH" id="path3" fill="#B2B4B3" d="M79.927,40.884c0-21.165-17.22-38.384-38.383-38.384C20.378,2.5,3.155,19.719,3.155,40.884
		c0,21.167,17.221,38.388,38.386,38.388C62.707,79.271,79.927,62.051,79.927,40.884z M41.543,69.635
		c-15.853,0-28.749-12.896-28.749-28.75c0-15.853,12.896-28.747,28.749-28.747s28.75,12.896,28.75,28.747
		C70.293,56.738,57.396,69.635,41.543,69.635z M66.289,75.416l8.486-8.487l12.069,12.07c-0.488,5.637-3.079,8.75-8.486,8.484
		L66.289,75.416z"/>
</g>
</svg>
