<?xml-stylesheet href="../../../css/SVG.aspx" type="text/css"?>
<svg version="1.1" id="Layer_1" xmlns="http://www.w3.org/2000/svg" xmlns:xlink="http://www.w3.org/1999/xlink" x="0px" y="0px"
	fill="#555555" class="SVG_GADGET_INTERNO" viewBox="0 0 64 64"   xml:space="preserve">
<g>
	<path class="PATH_GADGET_INTERNO" d="M5.043,30.256l8.927,9.188l-1.544,13.085l-0.009,0.12c-0.063,1.699,0.411,3.124,1.371,4.12
		c1.367,1.418,3.598,1.705,5.811,0.707l11.85-6.451l11.75,6.401l0.1,0.05c0.892,0.402,1.77,0.606,2.611,0.606
		c1.247,0,2.383-0.467,3.199-1.313c0.96-0.996,1.434-2.421,1.371-4.12l-1.554-13.205l8.807-9.049l0.12-0.139
		c1.23-1.619,1.618-3.476,1.064-5.093s-1.999-2.846-3.964-3.37L41.726,19.66L35.958,8.056l-0.087-0.152
		c-1.137-1.741-2.806-2.74-4.579-2.74c-1.704,0-3.291,0.891-4.47,2.507L20,19.657L8.054,21.664l-0.164,0.037
		c-1.95,0.557-3.38,1.812-3.923,3.445C3.424,26.778,3.816,28.641,5.043,30.256z M6.814,26.094c0.223-0.67,0.87-1.196,1.826-1.485
		l13.264-2.229l7.391-13.006c1.206-1.597,2.896-1.557,4.02,0.102l6.412,12.901l14.522,2.333c0.959,0.271,1.608,0.775,1.831,1.426
		c0.222,0.646,0.021,1.438-0.563,2.236L45.78,38.375l1.704,14.441c0.021,0.826-0.168,1.489-0.536,1.87
		c-0.481,0.499-1.363,0.517-2.367,0.076l-13.133-7.154l-13.133,7.154c-1.006,0.44-1.888,0.422-2.367-0.075
		c-0.368-0.382-0.557-1.045-0.536-1.871l1.704-14.441L7.381,28.373C6.792,27.569,6.591,26.763,6.814,26.094z"/>
</g>
</svg>
