<?xml-stylesheet href="../../../css/SVG.aspx" type="text/css"?>
<svg version="1.1" id="Layer_1" xmlns="http://www.w3.org/2000/svg" xmlns:xlink="http://www.w3.org/1999/xlink" x="0px" y="0px"
		fill="#FFFFFF"    class="SVG_BARRA_TOP"  viewBox="0 0 50 50" enable-background="new 0 0 50 50" xml:space="preserve">
<path  class="PATH_BARRA_TOP"  d="M23.699,11.787v8.626c0,1.815-1.473,3.286-3.286,3.286h-8.627c-1.813,0-3.286-1.471-3.286-3.286v-8.626
	C8.5,9.972,9.973,8.5,11.786,8.5h8.627C22.229,8.5,23.699,9.972,23.699,11.787z M38.214,8.5h-8.627
	c-1.813,0-3.286,1.472-3.286,3.287v8.626c0,1.815,1.473,3.286,3.286,3.286h8.627c1.813,0,3.286-1.471,3.286-3.286v-8.626
	C41.5,9.972,40.027,8.5,38.214,8.5z M20.413,26.301h-8.627c-1.813,0-3.286,1.471-3.286,3.286v8.627c0,1.813,1.473,3.286,3.286,3.286
	h8.627c1.813,0,3.286-1.473,3.286-3.286v-8.627C23.699,27.771,22.229,26.301,20.413,26.301z M38.214,26.301h-8.627
	c-1.813,0-3.286,1.471-3.286,3.286v8.627c0,1.813,1.473,3.286,3.286,3.286h8.627c1.813,0,3.286-1.473,3.286-3.286v-8.627
	C41.5,27.771,40.027,26.301,38.214,26.301z"/>
</svg>
