<?xml version="1.0" encoding="utf-8"?>
<?xml-stylesheet href="../../../css/SVG.aspx" type="text/css"?>
<!DOCTYPE svg PUBLIC "-//W3C//DTD SVG 1.1//EN" "http://www.w3.org/Graphics/SVG/1.1/DTD/svg11.dtd">
<svg version="1.1" id="Layer_1" xmlns="http://www.w3.org/2000/svg" xmlns:xlink="http://www.w3.org/1999/xlink" x="0px" y="0px"
	 width="90px" height="90px" viewBox="0 0 90 90" class="SVG" enable-background="new 0 0 90 90" xml:space="preserve">
<path class="PATH" fill="#B2B4B3" d="M76.135,53.094c-2.757,0-5.253,1.133-7.05,2.954l-13.534-7.29c0.188-0.777,0.299-1.586,0.299-2.422
	c0-1.369-0.274-2.671-0.757-3.866l15.148-7.49c1.782,1.71,4.196,2.77,6.856,2.77c5.467,0,9.914-4.448,9.914-9.914
	c0-5.466-4.447-9.916-9.914-9.916c-5.466,0-9.914,4.45-9.914,9.916c0,1.559,0.372,3.026,1.016,4.34l-14.915,7.373
	c-1.529-1.741-3.632-2.954-6.018-3.356V22.242c4.895-0.602,8.702-4.776,8.702-9.832C55.965,6.949,51.52,2.5,46.054,2.5
	c-5.467,0-9.914,4.449-9.914,9.915c0,4.708,3.301,8.652,7.708,9.658v14.125c-2.281,0.382-4.305,1.508-5.813,3.128l-16.118-8.679
	c0.572-1.251,0.898-2.638,0.898-4.101c0-5.466-4.448-9.916-9.914-9.916s-9.913,4.448-9.913,9.914c0,5.464,4.447,9.912,9.913,9.912
	c2.767,0,5.268-1.141,7.069-2.975l16.169,8.709c-0.561,1.27-0.878,2.67-0.878,4.149c0,0.693,0.071,1.37,0.201,2.025l-14.834,7.334
	c-1.819-2.264-4.604-3.719-7.728-3.719c-5.466,0-9.913,4.449-9.913,9.914c0,5.467,4.447,9.914,9.913,9.914s9.914-4.447,9.914-9.914
	c0-1.119-0.194-2.191-0.538-3.197L36.7,51.566c1.516,2.56,4.103,4.401,7.147,4.91v11.353c-4.654,0.813-8.206,4.875-8.206,9.757
	c0,5.466,4.448,9.914,9.915,9.914c5.465,0,9.913-4.448,9.913-9.914c0-4.882-3.552-8.941-8.205-9.757V56.477
	c2.904-0.486,5.396-2.184,6.935-4.562l12.934,6.966c-0.579,1.258-0.912,2.654-0.912,4.127c0,5.466,4.447,9.913,9.914,9.913
	c5.465,0,9.914-4.447,9.914-9.913C86.049,57.541,81.6,53.094,76.135,53.094z"/>
</svg>
