<?xml version="1.0" encoding="utf-8"?>
<?xml-stylesheet href="../../../css/SVG.aspx" type="text/css"?>
<!DOCTYPE svg PUBLIC "-//W3C//DTD SVG 1.1//EN" "http://www.w3.org/Graphics/SVG/1.1/DTD/svg11.dtd">
<svg version="1.1" id="Layer_1" xmlns="http://www.w3.org/2000/svg" xmlns:xlink="http://www.w3.org/1999/xlink" x="0px" y="0px"
	 width="90px" height="90px" viewBox="0 0 90 90" class="SVG" enable-background="new 0 0 90 90" xml:space="preserve">
<g>
	<path fill="#B2B4B3" class="PATH" d="M87.5,60.938c0,11.735-9.516,21.25-21.25,21.25S45,72.673,45,60.938c0-11.734,9.516-21.25,21.25-21.25
		S87.5,49.202,87.5,60.938z M82.188,60.938C82.188,52.15,75.039,45,66.25,45s-15.938,7.149-15.938,15.938
		c0,8.789,7.148,15.938,15.938,15.938S82.188,69.726,82.188,60.938z M23.75,29.063H13.125v10.625H23.75V29.063z M13.125,55.625
		H23.75V45H13.125V55.625z M29.063,39.688h10.625V29.063H29.063V39.688z M29.063,55.625h10.625V45H29.063V55.625z M52.969,7.813
		H21.094H10.469H8.256c-3.18,0-5.756,2.614-5.756,5.843v46.754c0,3.217,2.576,5.842,5.756,5.842h31.432v-5.313H8.256
		c-0.241,0-0.443-0.248-0.443-0.528V23.75H66.25v10.625h5.313V13.654c0-3.229-2.572-5.842-5.752-5.842h-2.217H52.969L52.969,7.813z
		 M55.625,39.688V29.063H45v10.625H55.625z M74.219,60.938H66.25v-7.969c0-1.468-1.188-2.656-2.656-2.656
		c-1.468,0-2.656,1.188-2.656,2.656v10.625c0,1.469,1.188,2.656,2.656,2.656h10.625c1.469,0,2.656-1.188,2.656-2.656
		C76.875,62.126,75.688,60.938,74.219,60.938z"/>
</g>
</svg>
