<?xml-stylesheet href="../../../css/SVG.aspx" type="text/css"?>
<svg version="1.1" id="Layer_1" xmlns="http://www.w3.org/2000/svg" xmlns:xlink="http://www.w3.org/1999/xlink" x="0px" y="0px"
	fill="#555555" class="SVG" viewBox="0 0 50 50" enable-background="new 0 0 50 50" xml:space="preserve">
<path class="PATH" d="M37.962,24.556L26.06,17.124c-0.647-0.403-1.471-0.403-2.119,0l-11.902,7.433c-0.585,0.365-0.94,1.007-0.94,1.696v12.384
	c0,1.104,0.896,2,2,2h23.804c1.104,0,2-0.896,2-2V26.252C38.901,25.562,38.547,24.921,37.962,24.556z M24.273,34.781
	c0,0.688-0.558,1.245-1.247,1.245h-2.077c-0.688,0-1.247-0.559-1.247-1.245v-2.079c0-0.688,0.558-1.246,1.247-1.246h2.077
	c0.688,0,1.247,0.559,1.247,1.246V34.781z M24.273,28.964c0,0.688-0.558,1.246-1.247,1.246h-2.077c-0.688,0-1.247-0.559-1.247-1.246
	v-2.079c0-0.688,0.558-1.245,1.247-1.245h2.077c0.688,0,1.247,0.559,1.247,1.245V28.964z M30.297,34.781
	c0,0.688-0.558,1.245-1.247,1.245h-2.077c-0.688,0-1.247-0.559-1.247-1.245v-2.079c0-0.688,0.559-1.246,1.247-1.246h2.077
	c0.688,0,1.247,0.559,1.247,1.246V34.781z M30.297,28.964c0,0.688-0.558,1.246-1.247,1.246h-2.077c-0.688,0-1.247-0.559-1.247-1.246
	v-2.079c0-0.688,0.559-1.245,1.247-1.245h2.077c0.688,0,1.247,0.559,1.247,1.245V28.964z M44.402,23.48
	c-0.379,0.606-1.03,0.939-1.697,0.939c-0.362,0-0.729-0.098-1.059-0.304L25,13.722L8.353,24.118c-0.938,0.586-2.171,0.3-2.756-0.638
	c-0.585-0.938-0.3-2.17,0.637-2.756L23.941,9.667c0.648-0.403,1.471-0.403,2.119,0l17.707,11.058
	C44.703,21.31,44.988,22.542,44.402,23.48z"/>
</svg>
