<?xml version="1.0" encoding="utf-8"?>
<?xml-stylesheet href="../../../css/SVG.aspx" type="text/css"?>
<!DOCTYPE svg PUBLIC "-//W3C//DTD SVG 1.1//EN" "http://www.w3.org/Graphics/SVG/1.1/DTD/svg11.dtd">
<svg version="1.1" id="Layer_1" xmlns="http://www.w3.org/2000/svg" xmlns:xlink="http://www.w3.org/1999/xlink" x="0px" y="0px"
	 class="SVG_LOGIN" viewBox="12 29 90 84" enable-background="new 0 0 90 90" xml:space="preserve">
<g>
	<path   fill="#B2B4B3"  class="PATH_LOGIN"  d="M45.001,8.146c-21.928,0-39.703,17.776-39.703,39.703c0,21.928,17.775,39.703,39.703,39.703
		c21.926,0,39.701-17.775,39.701-39.703C84.702,25.922,66.927,8.146,45.001,8.146z M43.608,75.193
		c-6.4,0-11.606-5.206-11.606-11.605c0-4.883,2.986-9.161,7.503-10.859V24.557c0-0.523,0.423-0.947,0.947-0.947h6.315
		c0.524,0,0.947,0.424,0.947,0.947v1.609h4.011c0.524,0,0.948,0.424,0.948,0.947v2.842c0,0.523-0.424,0.947-0.948,0.947h-0.7v1.895
		c0,0.523-0.424,0.947-0.948,0.947h-2.362v1.128h2.362c0.524,0,0.948,0.424,0.948,0.947v2.842c0,0.523-0.424,0.947-0.948,0.947
		h-2.362v13.12c4.514,1.698,7.497,5.977,7.497,10.857C55.213,69.987,50.007,75.193,43.608,75.193z"/>
	<path  fill="#B2B4B3"  class="PATH_LOGIN" d="M43.608,58.101c-3.025,0-5.487,2.461-5.487,5.487c0,3.025,2.462,5.486,5.487,5.486c3.024,0,5.486-2.461,5.486-5.486
		C49.095,60.562,46.633,58.101,43.608,58.101z"/>
</g>
</svg>
