<?xml-stylesheet href="../../../css/SVG.aspx" type="text/css"?>
<svg  version="1.1" id="Layer_1" xmlns="http://www.w3.org/2000/svg" xmlns:xlink="http://www.w3.org/1999/xlink" x="0px" y="0px"
	fill="#555555"  class="SVG_GADGET" viewBox="0 0 24 24" enable-background="new 0 0 24 24" xml:space="preserve">
 
<path fill="#555555" class="PATH_GADGET"  d="M15,12c0,1.656-1.344,3-3,3c-1.657,0-3-1.344-3-3c0-1.657,1.343-3,3-3C13.656,9,15,10.343,15,12z M21,9
	c-1.656,0-3,1.343-3,3c0,1.656,1.344,3,3,3s3-1.344,3-3C24,10.343,22.656,9,21,9z M3,9c-1.657,0-3,1.343-3,3c0,1.656,1.343,3,3,3
	s3-1.344,3-3C6,10.343,4.657,9,3,9z"/>
 
</svg>
