<?xml version="1.0" encoding="utf-8"?>
<?xml-stylesheet href="../../../css/SVG.aspx" type="text/css"?>
<!DOCTYPE svg PUBLIC "-//W3C//DTD SVG 1.1//EN" "http://www.w3.org/Graphics/SVG/1.1/DTD/svg11.dtd">
<svg version="1.1" id="Layer_1" xmlns="http://www.w3.org/2000/svg" xmlns:xlink="http://www.w3.org/1999/xlink" x="0px" y="0px"
	 width="90px" height="90px" viewBox="0 0 90 90" class="SVG" enable-background="new 0 0 90 90" xml:space="preserve">
<path class="PATH" fill="#B2B4B3" d="M45,2.5C21.53,2.5,2.5,21.529,2.5,45S21.53,87.5,45,87.5c23.477,0,42.5-19.029,42.5-42.5S68.477,2.5,45,2.5z
	 M59.398,65.387c-2.598,2.913-6.349,4.628-11.252,5.145v7.47h-6.253v-7.432c-8.179-0.839-13.239-5.596-15.191-14.258l9.668-2.521
	c0.896,5.446,3.861,8.167,8.894,8.167c2.353,0,4.091-0.58,5.202-1.748c1.109-1.166,1.663-2.57,1.663-4.221
	c0-1.708-0.554-3.004-1.663-3.88c-1.108-0.884-3.577-1.998-7.4-3.353c-3.435-1.192-6.123-2.366-8.057-3.539
	c-1.933-1.16-3.506-2.79-4.711-4.885c-1.205-2.103-1.812-4.551-1.812-7.335c0-3.654,1.083-6.948,3.235-9.874
	c2.154-2.92,5.543-4.705,10.171-5.357V12h6.252v5.769c6.985,0.839,11.512,4.789,13.566,11.859L53.1,33.16
	c-1.683-4.848-4.271-7.271-7.792-7.271c-1.767,0-3.184,0.54-4.248,1.623c-1.07,1.083-1.605,2.397-1.605,3.938
	c0,1.572,0.516,2.776,1.547,3.622c1.025,0.839,3.236,1.876,6.613,3.119c3.712,1.354,6.626,2.637,8.734,3.842
	c2.112,1.205,3.795,2.875,5.059,4.996c1.257,2.126,1.888,4.606,1.888,7.449C63.299,58.845,61.996,62.479,59.398,65.387z"/>
</svg>
