<?xml version="1.0" encoding="utf-8"?>
<?xml-stylesheet href="../../../css/SVG.aspx" type="text/css"?>
<!DOCTYPE svg PUBLIC "-//W3C//DTD SVG 1.1//EN" "http://www.w3.org/Graphics/SVG/1.1/DTD/svg11.dtd">
<svg version="1.1" id="Layer_1" xmlns="http://www.w3.org/2000/svg" xmlns:xlink="http://www.w3.org/1999/xlink" x="0px" y="0px"
	 width="90px" height="90px" viewBox="0 0 90 90" class="SVG" enable-background="new 0 0 90 90" xml:space="preserve">
<path class="PATH" fill="#B2B4B3" d="M75.357,2.5H14.643C7.938,2.5,2.5,7.938,2.5,14.643v60.716C2.5,82.063,7.938,87.5,14.643,87.5h60.714
	c6.705,0,12.143-5.438,12.143-12.143V14.642C87.5,7.938,82.063,2.5,75.357,2.5z M20.107,17.679h24.381
	c2.013,0,3.643,1.629,3.643,3.644c0,2.014-1.632,3.644-3.643,3.644H20.107c-2.013,0-3.643-1.63-3.643-3.644
	C16.464,19.308,18.096,17.679,20.107,17.679z M20.107,33.465h24.286c2.011,0,3.643,1.629,3.643,3.644
	c0,2.013-1.632,3.643-3.643,3.643H20.107c-2.013,0-3.643-1.63-3.643-3.643C16.465,35.094,18.096,33.465,20.107,33.465z
	 M69.893,72.321H20.107c-2.013,0-3.643-1.629-3.643-3.644c0-2.014,1.629-3.644,3.643-3.644h49.786c2.012,0,3.644,1.63,3.644,3.644
	C73.536,70.692,71.904,72.321,69.893,72.321z M69.893,56.535H20.107c-2.013,0-3.643-1.629-3.643-3.644
	c0-2.013,1.629-3.643,3.643-3.643h49.786c2.012,0,3.644,1.63,3.644,3.643C73.536,54.906,71.904,56.535,69.893,56.535z
	 M76.586,26.759l-11.9,11.902c-0.556,0.559-1.289,0.838-2.02,0.838c-0.734,0-1.465-0.279-2.021-0.835l-7.371-7.356
	c-1.114-1.113-1.119-2.927,0-4.046c1.115-1.119,2.928-1.117,4.047-0.002l5.346,5.335l9.876-9.882c1.115-1.117,2.927-1.117,4.046,0
	C77.701,23.83,77.701,25.64,76.586,26.759z"/>
</svg>
