<?xml version="1.0" encoding="utf-8"?>
<?xml-stylesheet href="../../../css/SVG.aspx" type="text/css"?>
<!DOCTYPE svg PUBLIC "-//W3C//DTD SVG 1.1//EN" "http://www.w3.org/Graphics/SVG/1.1/DTD/svg11.dtd">
<svg version="1.1" id="Capa_1" xmlns="http://www.w3.org/2000/svg" xmlns:xlink="http://www.w3.org/1999/xlink" x="0px" y="0px" width="90px" height="90px" viewBox="0 0 90 90" class="SVG" enable-background="new 0 0 90 90" xml:space="preserve">
<g>
	<path fill="#B2B4B3" class="PATH" d="M76.137,53.093c-2.758,0-5.254,1.134-7.051,2.954l-13.533-7.29c0.188-0.776,0.299-1.586,0.299-2.422
		c0-1.369-0.272-2.671-0.758-3.866l15.148-7.488c1.781,1.709,4.195,2.77,6.855,2.77c5.467,0,9.914-4.448,9.914-9.914
		s-4.447-9.916-9.914-9.916c-5.468,0-9.914,4.45-9.914,9.916c0,1.559,0.371,3.025,1.018,4.34L53.285,39.55
		c-1.529-1.74-3.633-2.954-6.02-3.354V22.243c4.896-0.602,8.702-4.776,8.702-9.832c-0.004-5.461-4.448-9.91-9.913-9.91
		c-5.468,0-9.915,4.449-9.915,9.915c0,4.708,3.301,8.651,7.708,9.658v14.125c-2.281,0.382-4.305,1.508-5.813,3.128l-16.118-8.68
		c0.572-1.25,0.898-2.639,0.898-4.102c0-5.466-4.448-9.916-9.914-9.916c-5.466,0-9.913,4.448-9.913,9.914
		c0,5.464,4.447,9.912,9.913,9.912c2.767,0,5.268-1.143,7.069-2.977l16.169,8.709c-0.561,1.271-0.878,2.671-0.878,4.149
		c0,0.693,0.071,1.37,0.201,2.025l-14.834,7.334c-1.819-2.266-4.604-3.721-7.728-3.721c-5.466,0-9.913,4.448-9.913,9.914
		c0,5.467,4.447,9.913,9.913,9.913c5.466,0,9.914-4.446,9.914-9.913c0-1.119-0.194-2.189-0.538-3.197L36.7,51.563
		c1.516,2.561,4.103,4.399,7.147,4.91v11.354c-4.654,0.813-8.206,4.875-8.206,9.757c0,5.466,4.448,9.914,9.916,9.914
		c5.465,0,9.912-4.448,9.912-9.914c0-4.882-3.552-8.94-8.205-9.757V56.475c2.903-0.483,5.396-2.184,6.938-4.562l12.934,6.966
		c-0.578,1.258-0.912,2.654-0.912,4.127c0,5.467,4.447,9.913,9.914,9.913c5.465,0,9.914-4.446,9.914-9.913
		S81.602,53.093,76.137,53.093z"/>
</g>
</svg>
