<?xml version="1.0" encoding="utf-8"?>
<?xml-stylesheet href="../../../css/SVG.aspx" type="text/css"?>
<!DOCTYPE svg PUBLIC "-//W3C//DTD SVG 1.1//EN" "http://www.w3.org/Graphics/SVG/1.1/DTD/svg11.dtd">
<svg version="1.1" id="Capa_1" xmlns="http://www.w3.org/2000/svg" xmlns:xlink="http://www.w3.org/1999/xlink" x="0px" y="0px"
	 width="90px" height="90px" viewBox="0 0 90 90" class="SVG" enable-background="new 0 0 90 90" xml:space="preserve">
<g id="c19_health">
	<path class="PATH" fill="#B2B4B3" d="M75.387,19.337h-7.662v-4.711c0-6.673-5.453-12.123-12.113-12.123H34.404
		c-6.665,0-12.126,5.45-12.126,12.123v4.714h-7.652C7.953,19.337,2.5,23.951,2.5,30.615v44.766c0,6.664,5.453,12.116,12.125,12.116
		h60.762c6.663,0,12.113-5.452,12.113-12.116V30.615C87.5,23.951,82.051,19.337,75.387,19.337z M28.775,14.626
		c0-2.977,2.653-5.632,5.629-5.632h21.208c2.965,0,5.623,2.651,5.623,5.632v4.714H28.775V14.626z M64.479,61.528H51.491v12.986
		H38.515V61.528H25.528V45.3h12.987V32.324h12.976v12.979h12.987V61.528z"/>
</g>
<g id="Capa_1_1_">
</g>
</svg>
