<?xml version="1.0" encoding="utf-8"?>
<?xml-stylesheet href="../../../css/SVG.aspx" type="text/css"?>
<!DOCTYPE svg PUBLIC "-//W3C//DTD SVG 1.1//EN" "http://www.w3.org/Graphics/SVG/1.1/DTD/svg11.dtd">
<svg version="1.1" id="Capa_1" xmlns="http://www.w3.org/2000/svg" xmlns:xlink="http://www.w3.org/1999/xlink" x="0px" y="0px"
	 width="90px" height="90px" viewBox="0 0 90 90" class="SVG" enable-background="new 0 0 90 90" xml:space="preserve">
<path class="PATH" fill="#B2B4B3" d="M71.547,2.5H18.454c-2.943,0-5.328,2.359-5.328,5.317v74.364c0,2.939,2.422,5.318,5.328,5.318h53.093
	c2.943,0,5.328-2.359,5.328-5.318V7.818C76.875,4.88,74.451,2.5,71.547,2.5z M34.375,76.875H23.75V66.25h10.625L34.375,76.875
	L34.375,76.875z M34.375,60.938H23.75V50.314h10.625L34.375,60.938L34.375,60.938z M34.375,45H23.75V34.375h10.625L34.375,45
	L34.375,45z M50.313,76.875H39.688V66.25h10.625V76.875z M50.313,60.938H39.688V50.314h10.625V60.938z M50.313,45H39.688V34.375
	h10.625V45z M66.25,76.875H55.625V66.25H66.25V76.875z M66.25,60.938H55.625V50.314H66.25V60.938z M66.25,45H55.625V34.375H66.25V45
	z M69.563,23.751H20.438V9.813h49.125V23.751z"/>
</svg>
