<?xml version="1.0" encoding="utf-8"?>
<?xml-stylesheet href="../../../css/SVG.aspx" type="text/css"?>
<!DOCTYPE svg PUBLIC "-//W3C//DTD SVG 1.1//EN" "http://www.w3.org/Graphics/SVG/1.1/DTD/svg11.dtd">
<svg version="1.1" id="Layer_1" xmlns="http://www.w3.org/2000/svg" xmlns:xlink="http://www.w3.org/1999/xlink" x="0px" y="0px"
	 width="90px" height="90px" viewBox="0 0 90 90" class="SVG" enable-background="new 0 0 90 90" xml:space="preserve">
<g>
	<path class="PATH" fill="#B2B4B3" d="M45.002,27.11c-3.565,0-6.465,2.898-6.465,6.465v4.499h12.929v-4.496
		C51.461,30.009,48.567,27.11,45.002,27.11z"/>
	<path class="PATH" fill="#B2B4B3" d="M82.34,12.947c-4.021-2.73-10.061-9.83-10.061-9.83S66.715,6.6,59.143,6.6
		C51.57,6.601,44.997,2.5,44.997,2.5s-6.562,4.102-14.138,4.102c-7.573,0-13.138-3.483-13.138-3.483s-6.038,7.097-10.061,9.83
		c1.654,2.366,10.57,16.237,4.377,34.474c-5.914,17.426-4.853,21.779,3.548,28.25c9.222,7.104,17.872,1.873,29.411,11.828
		c11.542-9.955,20.195-4.723,29.418-11.828c8.398-6.471,9.469-10.824,3.547-28.25C71.771,29.187,80.688,15.316,82.34,12.947z
		 M61.621,60.232c0,1.52-1.248,2.77-2.77,2.77H31.152c-1.523,0-2.771-1.248-2.771-2.77v-19.39c0-1.522,1.247-2.77,2.771-2.77h2.537
		v-4.496c0-6.238,5.074-11.313,11.313-11.313c6.237,0,11.313,5.074,11.313,11.313v4.496h2.537c1.521,0,2.771,1.246,2.771,2.77v19.39
		H61.621z"/>
</g>
</svg>
