<?xml-stylesheet href="../../../css/SVG.aspx" type="text/css"?>
<svg version="1.1" id="Capa_1" xmlns="http://www.w3.org/2000/svg" xmlns:xlink="http://www.w3.org/1999/xlink" x="0px" y="0px"
	fill="#FFFFFF"      class="SVG_BARRA_TOP"  viewBox="0 0 64 64" enable-background="new 0 0 64 64" xml:space="preserve">
<g>
	<path class="PATH_BARRA_TOP" d="M16.5,55h30c4.687,0,8.5-3.813,8.5-8.5v-30c0-4.687-3.813-8.5-8.5-8.5h-30C11.813,8,8,11.813,8,16.5v30
		C8,51.187,11.813,55,16.5,55z M45,52H18v-3.355c0-1.761,0.875-3.399,2.339-4.383c1.192-0.8,3.828-1.051,5.752-1.233
		c0.479-0.045,0.93-0.088,1.332-0.135l0.28-0.033c2.094-0.247,5.5-0.248,7.594,0l0.282,0.033c0.401,0.047,0.851,0.09,1.331,0.135
		c1.924,0.183,4.56,0.433,5.752,1.233C44.125,45.246,45,46.884,45,48.645V52z M11,16.5c0-3.033,2.467-5.5,5.5-5.5h30
		c3.033,0,5.5,2.467,5.5,5.5v30c0,2.512-1.695,4.632-4,5.287v-3.142c0-2.763-1.371-5.332-3.667-6.874
		c-1.824-1.224-4.771-1.504-7.14-1.729c-0.456-0.043-0.883-0.083-1.263-0.128l-0.282-0.033c-2.326-0.273-5.97-0.273-8.297,0
		l-0.28,0.033c-0.38,0.045-0.808,0.085-1.264,0.128c-2.369,0.225-5.316,0.504-7.14,1.729C16.371,43.313,15,45.882,15,48.645v3.142
		c-2.305-0.655-4-2.775-4-5.287V16.5z"/>
	<path d="M31.188,37.633c5.927,0,10.75-5.282,10.75-11.773s-4.822-11.773-10.75-11.773s-10.75,5.281-10.75,11.773
		S25.26,37.633,31.188,37.633z M31.188,16.543c4.572,0,8.292,4.179,8.292,9.316c0,5.137-3.72,9.316-8.292,9.316
		s-8.292-4.179-8.292-9.316C22.895,20.723,26.615,16.543,31.188,16.543z"/>
</g>
</svg>
