<?xml version="1.0" encoding="utf-8"?>
<?xml-stylesheet href="../../css/SVG.aspx" type="text/css"?>
<!DOCTYPE svg PUBLIC "-//W3C//DTD SVG 1.1//EN" "http://www.w3.org/Graphics/SVG/1.1/DTD/svg11.dtd">
<svg version="1.1" id="Capa_1" xmlns="http://www.w3.org/2000/svg" xmlns:xlink="http://www.w3.org/1999/xlink" x="0px" y="0px"
	 class='SVG_REDES'  width="612px" height="792px" viewBox="0 0 612 792" enable-background="new 0 0 612 792" xml:space="preserve">
<g>
	<path  class='PATH_REDES' d="M306,94.75C139.636,94.75,4.75,229.636,4.75,396c0,166.364,134.886,301.25,301.25,301.25
		c166.363,0,301.25-134.886,301.25-301.25C607.25,229.599,472.365,94.75,306,94.75z M493.73,462.579
		c0,66.946-54.462,121.206-121.941,121.206H240.323c-67.406,0-122.161-54.187-122.161-121.206V329.495
		c0.036-66.983,54.719-121.28,122.161-121.28h61.559c67.48,0,121.501,50.381,121.501,117.363
		c0.847,12.54,12.172,23.462,25.08,23.462h21.034c13.497,0,24.271,14.158,24.271,27.525v86.014H493.73z"/>
	<path  class='PATH_REDES'  d="M376.42,442.96H235.578c-12.907,0-23.462,10.536-23.462,23.461c0,12.872,10.59,23.463,23.462,23.463H376.42
		c12.908,0,23.463-10.592,23.463-23.463C399.883,453.496,389.329,442.96,376.42,442.96z"/>
	<path  class='PATH_REDES'  d="M235.578,349.04H306c12.906,0,23.461-10.573,23.461-23.462c0-12.907-10.591-23.462-23.461-23.462h-70.422
		c-12.907,0-23.462,10.591-23.462,23.462C212.08,338.504,222.671,349.04,235.578,349.04z"/>
</g>
</svg>
