<?xml version="1.0" encoding="utf-8"?>
<?xml-stylesheet href="../../css/SVG.aspx" type="text/css"?>
<!DOCTYPE svg PUBLIC "-//W3C//DTD SVG 1.1//EN" "http://www.w3.org/Graphics/SVG/1.1/DTD/svg11.dtd">
<svg version="1.1" id="Layer_3" xmlns="http://www.w3.org/2000/svg" xmlns:xlink="http://www.w3.org/1999/xlink" x="0px" y="0px"
	 class='SVG_REDES'   width="612px" height="792px" viewBox="0 0 612 792" enable-background="new 0 0 612 792" xml:space="preserve">
<g>
	<path  class='PATH_REDES' d="M317.346,302.945c0-41.463-24.718-105.943-72.375-105.943c-14.981,0-31.034,7.479-40.251,19.003
		c-9.779,12.111-12.619,27.607-12.619,42.625c0,38.556,22.387,102.455,71.824,102.455c14.352,0,29.816-6.873,39.058-16.096
		C316.196,331.703,317.346,313.319,317.346,302.945z"/>
	<path  class='PATH_REDES' d="M286.306,454.379c-4.578-0.575-7.454-0.575-13.194-0.575c-5.185,0-36.219,1.132-60.338,9.247
		c-12.631,4.578-49.395,18.409-49.395,59.284c0,40.888,39.646,70.288,101.115,70.288c55.165,0,84.474-26.548,84.474-62.197
		C348.968,500.977,330.008,485.48,286.306,454.379z"/>
	<path  class='PATH_REDES' d="M306,96.885C140.803,96.885,6.885,230.803,6.885,396S140.803,695.115,306,695.115
		c165.196,0,299.114-133.918,299.114-299.115S471.197,96.885,306,96.885z M236.318,616.748c-83.33,0-123.526-39.706-123.526-82.345
		c0-20.716,10.325-50.062,44.229-70.227c35.606-21.879,83.899-24.743,109.769-26.524c-8.072-10.354-17.234-21.291-17.234-39.131
		c0-9.774,2.877-15.539,5.717-22.454c-6.328,0.587-12.62,1.15-18.373,1.15c-60.882,0-95.355-45.521-95.355-90.423
		c0-26.451,12.051-55.839,36.751-77.143c32.767-27.063,77.54-34.407,108.593-34.407h113.208l-37.363,23.476h-35.6
		c13.207,10.931,40.753,33.96,40.753,77.743c0,42.577-24.101,62.785-48.22,81.763c-7.484,7.472-16.113,15.532-16.113,28.219
		c0,12.637,8.629,19.542,14.933,24.768l20.704,16.083c25.288,21.298,48.269,40.875,48.262,80.644
		C387.445,562.078,335.131,616.748,236.318,616.748z M484.276,388.962v57.926h-28.428v-57.926h-57.485v-28.746h57.485v-57.564
		h28.428v57.564h57.767v28.746H484.276z"/>
</g>
</svg>
