<?xml version="1.0" encoding="utf-8"?>
<?xml-stylesheet href="../../css/SVG.aspx" type="text/css"?>
<!DOCTYPE svg PUBLIC "-//W3C//DTD SVG 1.1//EN" "http://www.w3.org/Graphics/SVG/1.1/DTD/svg11.dtd">
<svg version="1.1" id="Layer_6" xmlns="http://www.w3.org/2000/svg" xmlns:xlink="http://www.w3.org/1999/xlink" x="0px" y="0px"
	  class='SVG_REDES'  width="612px" height="792px" viewBox="0 0 612 792" enable-background="new 0 0 612 792" xml:space="preserve">
<path  class='PATH_REDES' d="M306,96.885C140.803,96.885,6.885,230.803,6.885,396S140.803,695.115,306,695.115
	c165.196,0,299.114-133.918,299.114-299.115S471.197,96.885,306,96.885z M193.924,598.517h-84.089V327.964h84.089V598.517z
	 M151.899,290.981c-26.953,0-48.771-21.849-48.771-48.764c0.006-26.892,21.817-48.74,48.771-48.74
	c26.879,0,48.728,21.848,48.728,48.74C200.626,269.139,178.772,290.981,151.899,290.981z M508.871,598.517h-84.027V466.943
	c0-31.378-0.581-71.733-43.703-71.733c-43.739,0-50.465,34.174-50.465,69.462v133.838H246.66V327.964h80.655v36.971h1.126
	c11.23-21.273,38.654-43.697,79.561-43.697c85.147,0,100.869,56.035,100.869,128.881V598.517z"/>
</svg>
