<?xml version="1.0" encoding="utf-8"?>
<?xml-stylesheet href="../../css/SVG.aspx" type="text/css"?>
<!DOCTYPE svg PUBLIC "-//W3C//DTD SVG 1.1//EN" "http://www.w3.org/Graphics/SVG/1.1/DTD/svg11.dtd">
<svg version="1.1" id="Layer_3" xmlns="http://www.w3.org/2000/svg" xmlns:xlink="http://www.w3.org/1999/xlink" x="0px" y="0px"
	 class='SVG_REDES'   width="612px" height="792px" viewBox="0 0 612 792" enable-background="new 0 0 612 792" xml:space="preserve">
<path  class='PATH_REDES' d="M306.001,94.893C139.708,94.893,4.892,229.701,4.892,396s134.815,301.107,301.108,301.107
	c166.292,0,301.107-134.809,301.107-301.107S472.293,94.893,306.001,94.893z M340.649,496.014c-27.855,0-54.05-15.057-63.021-32.152
	c0,0-14.98,59.421-18.127,70.884c-11.173,40.539-44.028,81.09-46.584,84.41c-1.781,2.312-5.715,1.588-6.125-1.479
	c-0.693-5.163-9.085-56.304,0.782-98.01c4.939-20.95,33.168-140.555,33.168-140.555s-8.225-16.467-8.225-40.815
	c0-38.225,22.159-66.764,49.744-66.764c23.458,0,34.782,17.616,34.782,38.727c0,23.584-15.012,58.847-22.754,91.524
	c-6.474,27.361,13.711,49.681,40.694,49.681c48.873,0,81.764-62.767,81.764-137.145c0-56.52-38.047-98.842-107.309-98.842
	c-78.225,0-127.006,58.346-127.006,123.534c0,22.462,6.642,38.326,17.033,50.579c4.759,5.638,5.438,7.905,3.706,14.373
	c-1.251,4.75-4.067,16.173-5.259,20.688c-1.72,6.549-7.009,8.872-12.929,6.465c-36.014-14.707-52.805-54.172-52.805-98.536
	c0-73.271,61.782-161.131,184.341-161.131c98.477,0,163.297,71.259,163.297,147.763C479.819,420.42,423.555,496.014,340.649,496.014
	z"/>
</svg>
