<?xml version="1.0" encoding="utf-8"?>
<?xml-stylesheet href="../../css/SVG.aspx" type="text/css"?>
<!DOCTYPE svg PUBLIC "-//W3C//DTD SVG 1.1//EN" "http://www.w3.org/Graphics/SVG/1.1/DTD/svg11.dtd">
<svg version="1.1" id="Layer_3" xmlns="http://www.w3.org/2000/svg" xmlns:xlink="http://www.w3.org/1999/xlink" x="0px" y="0px"
	 class='SVG_REDES'   width="612px" height="792px" viewBox="0 0 612 792" enable-background="new 0 0 612 792" xml:space="preserve">
<path  class='PATH_REDES' d="M306,96.885C140.803,96.885,6.885,230.803,6.885,396S140.803,695.115,306,695.115
	c165.196,0,299.114-133.918,299.114-299.115S471.197,96.885,306,96.885z M486.876,316.232c0.141,3.531,0.214,7.068,0.214,10.625
	c0,127.773-97.228,259.935-259.934,259.935c-49.737,0-98.165-14.192-140.044-41.053c-0.876-0.558-1.236-1.641-0.888-2.613
	c0.349-0.967,1.334-1.566,2.344-1.45c7.025,0.832,14.211,1.254,21.341,1.254c38.696,0,75.331-11.964,106.316-34.663
	c-37.143-3.134-69.064-28.274-80.545-64.126c-0.239-0.746-0.067-1.555,0.446-2.142c0.521-0.588,1.315-0.845,2.074-0.71
	c10.294,1.958,20.76,2.081,30.846,0.446c-38.306-11.909-65.228-47.785-65.228-88.642l0.013-1.188
	c0.018-0.777,0.44-1.487,1.113-1.873c0.667-0.392,1.5-0.398,2.173-0.019c9.988,5.545,21.04,9.107,32.381,10.472
	c-22.014-17.546-34.939-44.144-34.939-72.596c0-16.414,4.346-32.546,12.571-46.653c0.367-0.63,1.016-1.034,1.737-1.089
	c0.729-0.073,1.433,0.245,1.892,0.808c45.056,55.264,111.329,89.291,182.198,93.667c-1.182-5.949-1.781-12.081-1.781-18.268
	c0-51.169,41.629-92.792,92.792-92.792c25.159,0,49.462,10.336,66.885,28.403c19.64-4.002,38.349-11.224,55.625-21.469
	c0.789-0.472,1.787-0.398,2.51,0.171c0.716,0.576,1.01,1.53,0.728,2.412c-5.856,18.317-17.282,34.296-32.619,45.833
	c14.449-2.515,28.47-6.763,41.806-12.681c0.899-0.41,1.952-0.153,2.595,0.6c0.637,0.759,0.691,1.842,0.141,2.663
	C519.49,287.676,504.435,303.398,486.876,316.232z"/>
</svg>
