<?xml version="1.0" encoding="utf-8"?>
<?xml-stylesheet href="../../css/SVG.aspx" type="text/css"?>
<!DOCTYPE svg PUBLIC "-//W3C//DTD SVG 1.1//EN" "http://www.w3.org/Graphics/SVG/1.1/DTD/svg11.dtd">
<svg version="1.1" id="Layer_6" xmlns="http://www.w3.org/2000/svg" xmlns:xlink="http://www.w3.org/1999/xlink" x="0px" y="0px"
	 class='SVG_REDES'   width="612px" height="792px" viewBox="0 0 612 792" enable-background="new 0 0 612 792" xml:space="preserve">
<path  class='PATH_REDES' d="M306,96.885C140.809,96.885,6.885,230.809,6.885,396c0,165.191,133.924,299.115,299.115,299.115
	c165.19,0,299.114-133.924,299.114-299.115C605.115,230.809,471.191,96.885,306,96.885z M482.354,326.403
	c-17.008,38.434-69.027,160.167-103.74,239.506c-0.049,0.043-9.095-0.012-9.119-0.024l-54.743-128.948
	c-21.695,42.559-45.734,86.788-66.291,128.881c-0.123,0.215-9.945,0.099-9.958-0.036c-31.426-73.354-64.009-146.226-95.601-219.524
	c-7.313-17.919-32.968-46.739-50.526-46.573c0-2.081-0.098-6.726-0.122-9.535l108.214-0.012l-0.086,9.37
	c-12.705,0.588-34.664,8.697-28.972,22.724c15.251,32.932,69.254,160.509,83.85,192.896c10.184-19.933,38.623-73.066,50.337-95.533
	c-9.18-18.831-39.517-89.168-48.611-106.88c-6.86-11.548-24.076-12.962-37.332-13.164c0-2.956,0.153-5.232,0.099-9.29l95.122,0.293
	v8.642c-12.876,0.355-25.066,5.147-19.54,17.46c12.79,26.561,20.263,45.472,32.02,70.037c3.751-7.197,22.974-46.646,32.142-67.467
	c5.545-13.843-2.735-19.027-25.899-19.651c0.3-2.276,0.098-6.848,0.3-9.027l82.154,0.08l0.037,8.574
	c-15.098,0.587-30.723,8.629-38.887,21.114l-39.56,82.045c4.339,10.855,42.375,95.349,46.378,104.725l81.794-188.777
	c-5.82-15.282-24.383-18.697-31.641-18.862c0.049-2.436,0.061-6.151,0.073-9.253l85.38,0.245l0.123,0.428l-0.142,8.532
	C500.873,299.965,489.287,309.983,482.354,326.403z"/>
</svg>
