<?xml version="1.0" encoding="utf-8"?>
<?xml-stylesheet href="../../css/SVG.aspx" type="text/css"?>
<!DOCTYPE svg PUBLIC "-//W3C//DTD SVG 1.1//EN" "http://www.w3.org/Graphics/SVG/1.1/DTD/svg11.dtd">
<svg version="1.1" id="Layer_6" xmlns="http://www.w3.org/2000/svg" xmlns:xlink="http://www.w3.org/1999/xlink" x="0px" y="0px"
	 class='SVG_REDES'   width="612px" height="792px" viewBox="0 0 612 792" enable-background="new 0 0 612 792" xml:space="preserve">
<g>
	<polygon  class='PATH_REDES' points="164.022,418.074 187.738,418.074 187.738,546.43 210.173,546.43 210.173,418.074 234.328,418.074 
		234.328,397.053 164.022,397.053 	"/>
	<path  class='PATH_REDES' d="M353.73,433.767c-7.418,0-14.339,4.052-20.845,12.068v-48.788H312.72V546.43h20.165v-10.783
		c6.744,8.329,13.666,12.319,20.845,12.319c8.023,0,13.421-4.229,16.114-12.51c1.346-4.718,2.044-12.136,2.044-22.43v-44.32
		c0-10.539-0.691-17.896-2.044-22.375C367.156,437.989,361.753,433.767,353.73,433.767z M351.71,514.605
		c0,10.056-2.95,15.019-8.776,15.019c-3.311,0-6.683-1.585-10.055-4.963v-67.835c3.372-3.329,6.744-4.908,10.055-4.908
		c5.82,0,8.776,5.147,8.776,15.19V514.605z"/>
	<path  class='PATH_REDES' d="M275.088,520.188c-4.474,6.321-8.703,9.437-12.754,9.437c-2.693,0-4.229-1.585-4.719-4.719
		c-0.184-0.654-0.184-3.115-0.184-7.84v-81.946H237.26v88.006c0,7.857,0.68,13.176,1.781,16.555c2.025,5.636,6.506,8.28,12.992,8.28
		c7.424,0,15.037-4.48,23.055-13.673v12.143h20.184V435.125h-20.184V520.188z"/>
	<path  class='PATH_REDES' d="M292.402,332.297c6.566,0,9.718-5.208,9.718-15.612v-47.313c0-10.41-3.151-15.594-9.718-15.594
		c-6.573,0-9.731,5.19-9.731,15.594v47.313C282.67,327.095,285.828,332.297,292.402,332.297z"/>
	<path  class='PATH_REDES' d="M306,96.885C140.803,96.885,6.885,230.803,6.885,396S140.803,695.115,306,695.115
		c165.196,0,299.114-133.918,299.114-299.115S471.197,96.885,306,96.885z M339.268,236.788h20.325v82.816
		c0,4.78,0,7.258,0.244,7.925c0.447,3.158,2.051,4.774,4.78,4.774c4.075,0,8.354-3.158,12.87-9.542v-85.974h20.386v112.479h-20.386
		v-12.265c-8.115,9.303-15.845,13.813-23.28,13.813c-6.567,0-11.096-2.662-13.134-8.354c-1.126-3.409-1.812-8.789-1.812-16.726
		v-88.948H339.268z M262.291,273.465c0-12.026,2.044-20.814,6.377-26.5c5.637-7.693,13.574-11.536,23.733-11.536
		c10.208,0,18.14,3.843,23.775,11.536c4.278,5.679,6.322,14.474,6.322,26.5v39.388c0,11.958-2.044,20.827-6.322,26.451
		c-5.636,7.675-13.567,11.512-23.775,11.512c-10.159,0-18.097-3.837-23.733-11.512c-4.333-5.624-6.377-14.498-6.377-26.451V273.465z
		 M207.786,198.33l16.047,59.272l15.416-59.272h22.858l-27.191,89.811v61.133h-22.595v-61.133
		c-2.051-10.833-6.573-26.702-13.825-47.754c-4.762-14.009-9.725-28.06-14.486-42.057H207.786z M467.023,556.258
		c-4.088,17.742-18.604,30.839-36.071,32.791c-41.383,4.621-83.256,4.646-124.97,4.621c-41.695,0.024-83.587,0-124.964-4.621
		c-17.473-1.952-31.989-15.043-36.065-32.791c-5.82-25.275-5.82-52.864-5.82-78.887c0-26.021,0.073-53.61,5.888-78.887
		c4.082-17.748,18.586-30.845,36.059-32.791c41.384-4.621,83.269-4.645,124.977-4.621c41.695-0.024,83.581,0,124.964,4.621
		c17.473,1.952,31.989,15.043,36.078,32.791c5.808,25.276,5.765,52.865,5.765,78.887
		C472.862,503.394,472.837,530.982,467.023,556.258z"/>
	<path  class='PATH_REDES' d="M417.965,433.767c-10.313,0-18.329,3.788-24.155,11.407c-4.284,5.631-6.23,14.333-6.23,26.23v38.984
		c0,11.83,2.185,20.601,6.475,26.176c5.826,7.601,13.862,11.401,24.413,11.401c10.532,0,18.801-3.984,24.382-12.068
		c2.448-3.568,4.039-7.62,4.713-12.081c0.189-2.02,0.428-6.493,0.428-12.999v-2.938H427.42c0,8.084-0.263,12.564-0.446,13.659
		c-1.15,5.393-4.046,8.091-9.009,8.091c-6.928,0-10.313-5.141-10.313-15.44v-19.737h40.337v-23.048c0-11.897-2.013-20.6-6.242-26.23
		C436.111,437.561,428.087,433.767,417.965,433.767z M427.83,477.659h-20.171v-10.3c0-10.294,3.384-15.441,10.122-15.441
		c6.677,0,10.049,5.147,10.049,15.441V477.659z"/>
</g>
</svg>
